<svg xmlns="http://www.w3.org/2000/svg" xmlns:xlink="http://www.w3.org/1999/xlink" viewBox="0 0 35 35" version="1.1" x="0px" y="0px">
	<path d="M2.05874159,0 L32.9412584,0 C34.07827,0 35,0.936165452 35,2.05874159 L35,32.9412584 C35,34.07827 34.0638345,35 32.9412584,35 L2.05874159,35 C0.921730006,35 0,34.0638345 0,32.9412584 L0,2.05874159 C0,0.921730006 0.936165452,0 2.05874159,0 L2.05874159,0 Z M33,33 L33,2 L2,2 L2,33 L33,33 L33,33 Z M6,17.5 C6,11.1487254 11.1487254,6 17.5,6 C23.8512746,6 29,11.1487254 29,17.5 C29,23.8512746 23.8512746,29 17.5,29 C11.1487254,29 6,23.8512746 6,17.5 L6,17.5 Z M27,17.5 C27,12.2532949 22.7467051,8 17.5,8 C12.2532949,8 8,12.2532949 8,17.5 C8,22.7467051 12.2532949,27 17.5,27 C22.7467051,27 27,22.7467051 27,17.5 L27,17.5 Z M13,20 C14.1045695,20 15,19.1045695 15,18 C15,16.8954305 14.1045695,16 13,16 C11.8954305,16 11,16.8954305 11,18 C11,19.1045695 11.8954305,20 13,20 L13,20 Z M22,20 C23.1045695,20 24,19.1045695 24,18 C24,16.8954305 23.1045695,16 22,16 C20.8954305,16 20,16.8954305 20,18 C20,19.1045695 20.8954305,20 22,20 L22,20 Z"/>
</svg>
